<?xml version="1.0" encoding="utf-8"?>
<!-- Generator: Adobe Illustrator 26.0.2, SVG Export Plug-In . SVG Version: 6.00 Build 0)  -->
<svg version="1.1" id="레이어_1" xmlns="http://www.w3.org/2000/svg" xmlns:xlink="http://www.w3.org/1999/xlink" x="0px"
	 y="0px" viewBox="0 0 160.3 133.5" style="enable-background:new 0 0 160.3 133.5;" xml:space="preserve">
<style type="text/css">
	.st0{fill:#040000;}
</style>
<g>
	<g>
		<path class="st0" d="M14.2,87.1c1.2-3.4,2.7-6.1,4.4-8.3c1.7-2.2,3.4-3.7,5.1-4.6l0.9,2.8c-1.3,1-2.6,2.5-3.8,4.4
			c-1.2,1.9-2.2,4.3-3,7.2c-0.8,2.9-1.2,6.1-1.2,9.8v0.3c0,3.6,0.4,6.9,1.2,9.8c0.8,2.9,1.8,5.3,2.9,7.2c1.2,1.9,2.4,3.5,3.8,4.6
			l-0.9,2.6c-1.6-0.9-3.3-2.5-5.1-4.6c-1.7-2.2-3.2-4.9-4.4-8.3c-1.2-3.3-1.8-7.1-1.8-11.2v-0.2C12.4,94.2,13,90.5,14.2,87.1z"/>
	</g>
	<g>
		<path class="st0" d="M62.7,113.5h-4.4v-13.1l0.4-13.9l-11,27h-3.4l-10.9-27l0.4,13.9v13.1h-4.4V80h3.8h1.9L46,107.4L57,80h5.7
			V113.5z"/>
	</g>
	<g>
		<path class="st0" d="M86.6,108.8L79,101l-7.6,7.7l-2.8-2.8l7.6-7.7l-7.6-7.7l2.8-2.8l7.6,7.7l7.5-7.7l2.8,2.8l-7.5,7.7l7.6,7.7
			L86.6,108.8z"/>
	</g>
	<g>
		<path class="st0" d="M128.9,113.5h-4.4v-13.1l0.4-13.9l-11,27h-3.4l-10.9-27l0.4,13.9v13.1h-4.4V80h3.8h1.9l10.9,27.3L123.2,80
			h5.7L128.9,113.5L128.9,113.5z"/>
	</g>
	<g>
		<path class="st0" d="M144.1,109.8c-1.2,3.3-2.7,6.1-4.4,8.3c-1.7,2.2-3.4,3.7-5.1,4.6l-0.9-2.6c1.3-1,2.6-2.5,3.8-4.4
			c1.2-2,2.2-4.4,3-7.3c0.8-2.9,1.2-6.2,1.2-9.8v-0.3c0-3.6-0.4-6.9-1.2-9.8c-0.8-2.9-1.8-5.4-3-7.3c-1.2-2-2.4-3.4-3.7-4.4l0.9-2.6
			c1.6,0.9,3.3,2.4,5.1,4.6c1.7,2.2,3.2,5,4.4,8.3c1.2,3.4,1.8,7.1,1.8,11.2v0.2C145.9,102.7,145.3,106.4,144.1,109.8z"/>
	</g>
</g>
<g>
	<polygon class="st0" points="160.3,133.5 0,133.5 0,0 160.3,0 160.3,16.8 136.2,42.8 133.6,40.3 156.8,15.4 156.8,3.6 3.6,3.6 
		3.6,130 156.8,130 156.8,48.2 160.3,48.2 	"/>
</g>
<g>
	<path class="st0" d="M35.5,63.3h-4.6V71h-4.3v-7.8H11.3v-2.5l15-23.2h3.5h1.1v22.2h4.6V63.3z M26.6,59.8V43.4l-0.5,0.9l-9.9,15.5
		H26.6z"/>
	<path class="st0" d="M39.3,71v-3l11-12.2c1.4-1.5,2.4-2.8,3.1-3.8c0.7-1,1.3-2,1.6-2.8c0.3-0.8,0.4-1.7,0.4-2.6
		c0-1.1-0.2-2.1-0.7-3c-0.5-0.9-1.1-1.6-2-2.2c-0.9-0.5-1.9-0.8-3.1-0.8c-2.2,0-3.8,0.6-5,1.9c-1.1,1.2-1.7,2.9-1.7,5h-4.3
		c0-1.9,0.4-3.7,1.3-5.2c0.8-1.6,2.1-2.8,3.7-3.7c1.7-0.9,3.6-1.4,5.9-1.4c2.1,0,3.9,0.4,5.4,1.1c1.5,0.7,2.7,1.8,3.5,3.1
		c0.8,1.3,1.2,2.9,1.2,4.7c0,1.8-0.6,3.7-1.7,5.7c-1.1,2-2.7,4-4.6,6.1l-9,9.8h16.8V71L39.3,71L39.3,71z"/>
</g>
</svg>
