<?xml version="1.0" encoding="utf-8"?>
<!-- Generator: Adobe Illustrator 26.4.1, SVG Export Plug-In . SVG Version: 6.00 Build 0)  -->
<svg version="1.1" id="레이어_1" xmlns="http://www.w3.org/2000/svg" xmlns:xlink="http://www.w3.org/1999/xlink" x="0px"
	 y="0px" viewBox="0 0 1684.2 298.6" style="enable-background:new 0 0 1684.2 298.6;" xml:space="preserve">
<style type="text/css">
	.accolade-logo{fill:#FFFFFF;}
</style>
<g>
	<polygon class="accolade-logo" points="937.5,5.7 930,5.7 922,5.7 916.3,5.7 916.3,11.4 916.3,18.2 916.3,152.5 1045.4,152.5 1054.3,133.3 
		937.5,133.3 	"/>
	<g>
		<g>
			<g>
				<path class="accolade-logo" d="M761.1,0c-51.3,0-84.5,31.3-84.5,79.7c0,46.7,34.3,78.1,85.2,78.1c51.5,0,84.7-31.3,84.7-79.7
					C846.6,31.4,812.3,0,761.1,0 M761.6,139c-38.8,0-63.8-24.2-63.8-61.6c0-36,24.3-58.4,63.3-58.4h0.5
					c38.8,0.2,63.8,24.4,63.8,61.6C825.5,116.1,800.4,139,761.6,139"/>
			</g>
		</g>
		<g>
			<g>
				<path class="accolade-logo" d="M308,20.8c10,0,43.1,2.1,56.1,29l22.5-0.2l-2.3-5.8c-10.9-27.2-38.4-42.7-75.8-42.7
					c-52.5,0-86.5,30-86.5,76.5c0,46.3,35.8,79.9,85,79.9c39.2,0,67.5-17.6,78-48.5l1.5-4.7h-22.2c-9.5,20.4-29.4,32.6-53.6,32.6
					c-39,0-65.3-23.8-65.3-59.3C245.3,43.1,269.9,20.8,308,20.8"/>
			</g>
		</g>
		<g>
			<g>
				<path class="accolade-logo" d="M533.6,20.8c10,0,43.1,2.1,56.1,29l22.5-0.2l-2.3-5.8C599,16.6,571.5,1.1,534.1,1.1
					c-52.5,0-86.5,30-86.5,76.5c0,46.3,35.8,79.9,85,79.9c39.2,0,67.5-17.6,78-48.5l1.5-4.7h-22.2c-9.5,20.4-29.4,32.6-53.6,32.6
					c-39,0-65.3-23.8-65.3-59.3C471,43.1,495.6,20.8,533.6,20.8"/>
			</g>
		</g>
		<g>
			<g>
				<path class="accolade-logo" d="M1417,5.5l-65.1,0.2h-11.5v5.7v11.4v129.8h76.4c45.7,0,75.1-31.6,75.1-77.4
					C1491.9,33.7,1463.2,5.5,1417,5.5 M1408.1,134.2h-46.5V25l46.7-0.2c38.5,0,59.9,19.9,59.9,51.3
					C1468.3,111.6,1446.1,134.2,1408.1,134.2"/>
			</g>
		</g>
		<g>
			<g>
				<path class="accolade-logo" d="M1214.7,6h-41.3l-68,146.9h23l20-43.7h4.5h82h4.6l20.2,43.7h22.2L1214.7,6z M1225,90.1h-62.3h-5.6l2.4-5.2
					l0.9-2.1c4.7-10.2,26.1-57.1,26.1-57.1h14.3l27.4,59.2l2.4,5.1L1225,90.1L1225,90.1z"/>
			</g>
		</g>
		<g>
			<g>
				<path class="accolade-logo" d="M109.3,5.4H68L0,152.3h23l20-43.7h4.5h82h4.6l20.2,43.7h22.2L109.3,5.4z M119.6,89.6H57.3h-5.6l2.4-5.2
					l0.9-2.1c4.7-10.2,26.1-57.1,26.1-57.1h14.3l27.4,59.2l2.4,5.1L119.6,89.6L119.6,89.6z"/>
			</g>
		</g>
	</g>
	<polygon class="accolade-logo" points="1574.8,133.2 1574.8,86.9 1669.7,86.9 1669.7,66.8 1574.8,66.8 1574.8,25.4 1679.6,25.4 1679.6,5.7 
		1567.2,5.7 1553.8,5.7 1553.8,24.7 1553.8,152.4 1675.3,152.4 1684.2,133.2 	"/>
	<polygon class="accolade-logo" points="636.9,294.9 636.9,229.4 623.8,229.4 623.8,216.1 650.1,216.1 650.1,294.9 	"/>
	<g>
		<g>
			<path class="accolade-logo" d="M710.5,255.8c0-26,16.6-42.6,41.7-42.6c25.2,0,42.1,16.8,42.1,41.8c0,26-16.7,42.6-41.8,42.6
				C727.3,297.6,710.5,280.8,710.5,255.8 M752.2,226.1c-16.9,0-27.7,10.8-27.7,28.5c0,18.2,10.8,30.2,28.1,30.2
				c16.9,0,27.8-10.8,27.8-28.5C780.3,238,769.4,226.1,752.2,226.1"/>
		</g>
	</g>
	<g>
		<g>
			<path class="accolade-logo" d="M843.1,255.8c0-26,16.6-42.6,41.7-42.6c25.2,0,42.1,16.8,42.1,41.8c0,26-16.7,42.6-41.8,42.6
				C859.9,297.6,843.1,280.8,843.1,255.8 M884.7,226.1c-16.9,0-27.7,10.8-27.7,28.5c0,18.2,10.8,30.2,28.1,30.2
				c16.9,0,27.8-10.8,27.8-28.5C912.9,238,902,226.1,884.7,226.1"/>
		</g>
	</g>
	<g>
		<g>
			<path class="accolade-logo" d="M1013.3,298.6c-19.8,0-33.3-7.8-37.8-20.4l10.4-7.7c3.6,8.9,14.7,14,27,14c14.8,0,26.2-7.3,26.2-23
				c0-0.6-0.1-1.2-0.1-1.8c-8,5.8-17.5,8.3-24.7,8.3c-23.3,0-38.4-11.7-38.4-28.6c0-16,19.1-27.1,38.5-27.1
				c19.9,0,40.1,11.7,40.1,42C1054.5,284.2,1040.5,298.6,1013.3,298.6 M1014.4,254.7c10.8,0,19.9-5,22.7-12.2
				c-0.7-11.5-11.2-16.3-22.7-16.3s-23,5.1-23,13.3C991.4,248,1000.4,254.7,1014.4,254.7"/>
		</g>
	</g>
</g>
</svg>
