<svg xmlns="http://www.w3.org/2000/svg" xmlns:xlink="http://www.w3.org/1999/xlink" width="137.603" height="14.438" viewBox="0 0 137.603 14.438">
  <defs>
    <clipPath id="clip-path">
      <rect id="사각형_48" data-name="사각형 48" width="137.603" height="14.438" fill="none"/>
    </clipPath>
  </defs>
  <g id="그룹_130" data-name="그룹 130" clip-path="url(#clip-path)">
    <path id="패스_101" data-name="패스 101" d="M6.979,14.438A6.974,6.974,0,0,1,4.253,13.9a6.643,6.643,0,0,1-2.213-1.5A7.21,7.21,0,0,1,.551,10.124,7.356,7.356,0,0,1,0,7.259v-.04A7.368,7.368,0,0,1,.541,4.393a7.212,7.212,0,0,1,1.489-2.3A6.778,6.778,0,0,1,4.282.555,7.208,7.208,0,0,1,7.133,0,7.983,7.983,0,0,1,9.028.208,6.383,6.383,0,0,1,10.584.8a6.231,6.231,0,0,1,1.276.922A7.546,7.546,0,0,1,12.875,2.9L10.052,5.136a4.924,4.924,0,0,0-1.276-1.19A3.1,3.1,0,0,0,7.094,3.51a2.935,2.935,0,0,0-1.3.288,3.136,3.136,0,0,0-1.015.783,3.7,3.7,0,0,0-.667,1.17,4.192,4.192,0,0,0-.241,1.428v.04a4.337,4.337,0,0,0,.241,1.458,3.672,3.672,0,0,0,.667,1.18,3.123,3.123,0,0,0,1.015.783,2.935,2.935,0,0,0,1.3.288,3.612,3.612,0,0,0,.957-.119,2.874,2.874,0,0,0,.793-.347,4.308,4.308,0,0,0,.676-.535,7.98,7.98,0,0,0,.628-.684L12.971,11.3a10.333,10.333,0,0,1-1.053,1.25,6.094,6.094,0,0,1-1.3.991A6.666,6.666,0,0,1,9,14.2a7.907,7.907,0,0,1-2.02.238" transform="translate(0 0)" fill="#fff"/>
    <path id="패스_102" data-name="패스 102" d="M42.076.859h3.506L51.161,8.2V.859h3.692V14.742H51.56L45.768,7.126v7.615H42.076Z" transform="translate(-28.467 -0.581)" fill="#fff"/>
    <path id="패스_103" data-name="패스 103" d="M86,.859h5.219a9.628,9.628,0,0,1,3.238.506,6.8,6.8,0,0,1,2.4,1.418,6.062,6.062,0,0,1,1.489,2.172,7.284,7.284,0,0,1,.512,2.767V7.76a7.3,7.3,0,0,1-.522,2.786,6.256,6.256,0,0,1-1.508,2.211A6.939,6.939,0,0,1,94.4,14.216a9.453,9.453,0,0,1-3.257.526H86ZM91.285,11.33A3.943,3.943,0,0,0,94,10.418a3.289,3.289,0,0,0,1.028-2.6V7.78A3.3,3.3,0,0,0,94,5.192a3.914,3.914,0,0,0-2.716-.922H89.752v7.06Z" transform="translate(-58.185 -0.581)" fill="#fff"/>
    <path id="패스_104" data-name="패스 104" d="M137.809,15.447h-.8V2.857h2.221a3.93,3.93,0,0,1,2.721.735,3.335,3.335,0,0,1,1.136,2.588,3.305,3.305,0,0,1-1.052,2.488,4.174,4.174,0,0,1-2.8.8h-1.42Zm1.453-6.729a3.035,3.035,0,0,0,2.2-.685,2.468,2.468,0,0,0,.818-1.887,2.511,2.511,0,0,0-.952-2.037,3.488,3.488,0,0,0-2.2-.5h-1.319V8.718Z" transform="translate(-92.694 -1.933)" fill="#fff"/>
    <path id="패스_105" data-name="패스 105" d="M167.343,14.7h3.206v.751h-4.007V2.857h.8Z" transform="translate(-112.676 -1.933)" fill="#fff"/>
    <path id="패스_106" data-name="패스 106" d="M187.172,10.433l-1.686,4.141h-.818l5.276-13.007,5.26,13.007h-.818L192.7,10.433ZM189.943,3.6l-2.471,6.078H192.4Z" transform="translate(-124.938 -1.06)" fill="#fff"/>
    <path id="패스_107" data-name="패스 107" d="M238.221,15.515,227.652,4.278V15.1h-.8V2.341L237.42,13.495V2.508h.8Z" transform="translate(-153.478 -1.584)" fill="#fff"/>
    <path id="패스_108" data-name="패스 108" d="M286.912,15.515,276.343,4.278V15.1h-.8V2.341L286.11,13.495V2.508h.8Z" transform="translate(-186.42 -1.584)" fill="#fff"/>
    <rect id="사각형_47" data-name="사각형 47" width="0.801" height="12.59" transform="translate(104.87 0.924)" fill="#fff"/>
    <path id="패스_109" data-name="패스 109" d="M351.609,15.515,341.04,4.278V15.1h-.8V2.341l10.569,11.154V2.508h.8Z" transform="translate(-230.191 -1.584)" fill="#fff"/>
    <path id="패스_110" data-name="패스 110" d="M399.163,9.037a5.548,5.548,0,0,1-1.319,4.191,6.508,6.508,0,0,1-11.237-4.375,6.542,6.542,0,0,1,6.562-6.512,6.646,6.646,0,0,1,5.46,2.938l-.651.518a5.767,5.767,0,0,0-4.859-2.7,5.852,5.852,0,0,0-5.71,5.71,5.751,5.751,0,0,0,5.71,5.71,6.014,6.014,0,0,0,3.707-1.386,4.2,4.2,0,0,0,1.536-3.34h-4.508V9.037Z" transform="translate(-261.563 -1.584)" fill="#fff"/>
  </g>
</svg>
