<?xml version="1.0" encoding="utf-8"?>
<!-- Generator: Adobe Illustrator 26.5.0, SVG Export Plug-In . SVG Version: 6.00 Build 0)  -->
<svg version="1.1" id="레이어_1" xmlns="http://www.w3.org/2000/svg" xmlns:xlink="http://www.w3.org/1999/xlink" x="0px"
	 y="0px" viewBox="0 0 30 30" style="enable-background:new 0 0 30 30;" xml:space="preserve">
<style type="text/css">
	.st0{fill:#FFFFFF;}
</style>
<g>
	<path class="st0" d="M5.5,2c0,0,0.1,0,0.1,0c0,0,0.1,0,0.1,0.1l0,0.1l0,0c0.4,0.4,0.9,0.9,1.3,1.3l0.7,0.7l1.9,1.9l0.1,0.1l0.1,0.1
		c0,0,0.1,0.1,0.1,0.1c0,0,0,0.1,0,0.1c0,0,0,0.1,0,0.1c0,0-0.1,0.1-0.1,0.1L9.8,6.9L9.7,6.9C9,7.7,8.2,8.5,7.4,9.3
		C7,9.6,6.7,10.1,6.6,10.7c-0.1,0.6,0,1.1,0.2,1.6c0.6,1.4,1.5,2.7,2.5,3.9c1.9,2.4,4.1,4.4,6.6,6c0.4,0.2,0.8,0.4,1.1,0.6
		c0.2,0.1,0.4,0.2,0.5,0.3c0.4,0.2,0.8,0.4,1.3,0.4c0.1,0,0.3,0,0.4,0c0.6-0.1,1.1-0.4,1.5-0.8c0.8-0.8,1.6-1.6,2.4-2.4l0.1-0.1
		l0.1-0.1c0,0,0.1-0.1,0.1-0.1c0,0,0.1,0,0.1,0s0.1,0,0.1,0c0,0,0.1,0,0.1,0.1l0.1,0.1l0.1,0.1c1.3,1.3,2.6,2.6,3.9,3.9l0.1,0.1
		l0.1,0.1c0,0,0.1,0.1,0.1,0.1c0,0,0,0.1,0,0.1c0,0.1,0,0.1,0,0.1c0,0-0.1,0.1-0.1,0.1l-0.1,0.1l-0.1,0.1c-0.2,0.2-0.4,0.4-0.7,0.7
		c-0.5,0.5-1.1,1.1-1.6,1.7c-0.3,0.3-0.6,0.5-1,0.6C24.2,28,23.9,28,23.6,28c-0.1,0-0.2,0-0.3,0l0,0l0,0c-1.8-0.2-3.6-0.7-5.2-1.5
		l0,0l0,0c-4-1.9-7.4-4.6-10.2-8c-2.1-2.5-3.8-5.2-5-8.3l0,0l0,0C2.2,8.8,2,7.4,2,6c0-0.5,0.2-1,0.6-1.3c0.5-0.5,1-1,1.5-1.5
		c0.3-0.3,0.7-0.7,1-1l0.1-0.1l0-0.1c0,0,0.1-0.1,0.1-0.1C5.4,2,5.4,2,5.5,2 M5.5,0c-0.3,0-0.7,0.1-1,0.2C4.2,0.3,3.9,0.5,3.7,0.8
		C2.9,1.6,2.1,2.4,1.3,3.2C0.5,3.9,0.1,4.9,0,5.9c-0.1,1.7,0.2,3.4,0.9,4.9c1.2,3.2,3,6.2,5.3,8.9c3,3.6,6.7,6.5,10.9,8.5
		c1.9,1,3.9,1.6,6,1.8c0.2,0,0.3,0,0.5,0c0.5,0,1.1-0.1,1.6-0.3c0.7-0.3,1.3-0.7,1.7-1.2c0.7-0.8,1.5-1.5,2.2-2.3
		c0.3-0.2,0.5-0.5,0.6-0.8c0.1-0.3,0.2-0.6,0.2-1c0-0.3-0.1-0.7-0.2-1c-0.1-0.3-0.4-0.6-0.6-0.8c-1.3-1.3-2.6-2.6-3.9-3.9
		c-0.2-0.3-0.5-0.5-0.8-0.6c-0.3-0.1-0.6-0.2-1-0.2s-0.7,0.1-1,0.2c-0.3,0.1-0.6,0.3-0.8,0.6c-0.8,0.8-1.6,1.6-2.5,2.5
		c-0.1,0.1-0.2,0.2-0.3,0.2c0,0-0.1,0-0.1,0c-0.1,0-0.2,0-0.3-0.1c-0.5-0.3-1.1-0.5-1.6-0.8c-2.3-1.5-4.4-3.4-6.1-5.6
		c-0.9-1.1-1.6-2.2-2.2-3.5c-0.1-0.1-0.1-0.2-0.1-0.3c0-0.1,0.1-0.2,0.2-0.3c0.8-0.8,1.6-1.6,2.4-2.4c0.3-0.2,0.5-0.5,0.6-0.8
		c0.1-0.3,0.2-0.7,0.2-1c0-0.3-0.1-0.7-0.2-1s-0.4-0.6-0.6-0.8L9.2,2.8c-0.7-0.7-1.3-1.3-2-2C7,0.5,6.8,0.3,6.4,0.2
		C6.1,0.1,5.8,0,5.5,0L5.5,0z"/>
</g>
</svg>
