<svg xmlns="http://www.w3.org/2000/svg" xmlns:xlink="http://www.w3.org/1999/xlink" width="117.615" height="16.042" viewBox="0 0 117.615 16.042">
  <defs>
    <clipPath id="clip-path">
      <rect id="사각형_46" data-name="사각형 46" width="117.615" height="16.042" fill="none"/>
    </clipPath>
  </defs>
  <g id="그룹_129" data-name="그룹 129" clip-path="url(#clip-path)">
    <path id="패스_92" data-name="패스 92" d="M13.006,5.32,9.56,14.029a3.032,3.032,0,0,0-.3.839q0,.508.818.718v.353H5.226v-.353q.74-.143.74-.751a4.714,4.714,0,0,0-.31-.982L1.337,2.735a4,4,0,0,0-.58-1.121A1.323,1.323,0,0,0,0,1.222V.869H5.239v.353q-.7.155-.7.651A2.29,2.29,0,0,0,4.72,2.6L7.7,10.577l3.227-8.019a2.452,2.452,0,0,0,.21-.685q0-.508-.74-.651V.869h5.477v.353q-.751.2-.751.718a2.31,2.31,0,0,0,.188.662l3.076,7.975,2.971-7.842a2.679,2.679,0,0,0,.232-.872q0-.486-.8-.64V.869h5.183v.353a1.556,1.556,0,0,0-.763.4,4.546,4.546,0,0,0-.552,1.115l-4.32,11.118a3.832,3.832,0,0,0-.309,1.06q0,.541.784.673v.353H15.9v-.353q.773-.121.773-.74a3.665,3.665,0,0,0-.343-.993Z" transform="translate(0 -0.604)" fill="#fff"/>
    <path id="패스_93" data-name="패스 93" d="M93.867,10.868v10.1a.785.785,0,0,0,.155.524,1.16,1.16,0,0,0,.552.3v.309H90.2V21.8a1.047,1.047,0,0,0,.547-.287.793.793,0,0,0,.16-.53V10.869a.767.767,0,0,0-.155-.519,1.2,1.2,0,0,0-.552-.3V9.743h4.372v.309a1.1,1.1,0,0,0-.552.292.786.786,0,0,0-.155.524" transform="translate(-62.706 -6.773)" fill="#fff"/>
    <path id="패스_94" data-name="패스 94" d="M124.99,10.253,123.5,13.135l-.265-.144a.735.735,0,0,0-.232-.574,4.836,4.836,0,0,0-1.855-.927,8.66,8.66,0,0,0-2.484-.365,5.587,5.587,0,0,0-1.9.3q-1.192.431-1.192,1.248a.788.788,0,0,0,.574.767,9.094,9.094,0,0,0,2.219.359l1.745.133a8.193,8.193,0,0,1,3.478.883,3.382,3.382,0,0,1,1.634,2.926,3.381,3.381,0,0,1-1.7,2.981,8.02,8.02,0,0,1-4.394,1.049,12.936,12.936,0,0,1-5.4-1.181.78.78,0,0,0-.3-.077.517.517,0,0,0-.408.265l-.276-.11,1.27-3.025.276.111v.088a.628.628,0,0,0,.221.486,4.852,4.852,0,0,0,1.91.845,10.467,10.467,0,0,0,2.683.359,6.618,6.618,0,0,0,2.1-.309q1.148-.375,1.148-1.214a.973.973,0,0,0-.795-.939,9.643,9.643,0,0,0-1.91-.3l-1.734-.143a14.864,14.864,0,0,1-2.142-.287,4.354,4.354,0,0,1-1.292-.519,3.057,3.057,0,0,1-1.1-1.2,3.549,3.549,0,0,1-.4-1.667,3.43,3.43,0,0,1,1.744-3.1,7.41,7.41,0,0,1,3.93-.972,9.513,9.513,0,0,1,2.368.282,15.742,15.742,0,0,1,2.622.988,1.862,1.862,0,0,0,.629.21.784.784,0,0,0,.453-.243Z" transform="translate(-78.378 -6.168)" fill="#fff"/>
    <path id="패스_95" data-name="패스 95" d="M165.468,15.242v3.014h7.85a.8.8,0,0,0,.524-.152,1.09,1.09,0,0,0,.293-.554h.309V21.2h-.309a1.047,1.047,0,0,0-.287-.547.8.8,0,0,0-.53-.16H161.8v-.309a1.047,1.047,0,0,0,.547-.287.793.793,0,0,0,.16-.53V9.258a.767.767,0,0,0-.155-.519,1.2,1.2,0,0,0-.552-.3V8.132h11.173a.809.809,0,0,0,.536-.155,1.1,1.1,0,0,0,.292-.552h.3V11.08h-.3a1.088,1.088,0,0,0-.292-.554.818.818,0,0,0-.536-.152h-7.507v2.716h4.659a.789.789,0,0,0,.525-.155,1.162,1.162,0,0,0,.3-.552h.3v3.566h-.3a1.119,1.119,0,0,0-.293-.549.8.8,0,0,0-.536-.158Z" transform="translate(-112.482 -5.162)" fill="#fff"/>
    <path id="패스_96" data-name="패스 96" d="M226.327,10.157l2.1,3.141-.287.2a.859.859,0,0,0-.508-.287,3.924,3.924,0,0,0-1.115.531,15.517,15.517,0,0,1-3.2,1.477,11.019,11.019,0,0,1-3.086.382,9.589,9.589,0,0,1-5.851-1.689,7.1,7.1,0,0,1-2.12-2.44,7.652,7.652,0,0,1-.894-3.676,7.436,7.436,0,0,1,1.6-4.758Q215.375,0,220.244,0a11,11,0,0,1,3.069.376,15.646,15.646,0,0,1,3.2,1.479,3.972,3.972,0,0,0,1.115.519.859.859,0,0,0,.508-.287l.287.2-2.1,3.146-.3-.2a2.413,2.413,0,0,0,.022-.3.847.847,0,0,0-.276-.6,4.65,4.65,0,0,0-.982-.677,8.318,8.318,0,0,0-4.14-1.1,6.192,6.192,0,0,0-4.118,1.29A4.9,4.9,0,0,0,214.723,7.8a4.9,4.9,0,0,0,1.811,3.948,6.191,6.191,0,0,0,4.118,1.291,8.294,8.294,0,0,0,4.14-1.1,4.663,4.663,0,0,0,.982-.679.852.852,0,0,0,.276-.6,2.188,2.188,0,0,0-.022-.287Z" transform="translate(-146.937 0)" fill="#fff"/>
    <path id="패스_97" data-name="패스 97" d="M279.735,10.868v10.1a.785.785,0,0,0,.155.524,1.16,1.16,0,0,0,.552.3v.309H276.07V21.8a1.046,1.046,0,0,0,.547-.287.793.793,0,0,0,.16-.53V10.869a.767.767,0,0,0-.155-.519,1.2,1.2,0,0,0-.552-.3V9.743h4.372v.309a1.1,1.1,0,0,0-.552.292.786.786,0,0,0-.155.524" transform="translate(-191.917 -6.773)" fill="#fff"/>
    <path id="패스_98" data-name="패스 98" d="M304.531,10.374v8.988a.787.787,0,0,0,.155.524,1.163,1.163,0,0,0,.552.3V20.5h-4.372v-.309a1.043,1.043,0,0,0,.547-.287.792.792,0,0,0,.16-.53v-9h-3.643a.8.8,0,0,0-.536.158,1.119,1.119,0,0,0-.293.549h-.3V7.426h.3a1.068,1.068,0,0,0,.282.546.791.791,0,0,0,.536.16h10.255a.808.808,0,0,0,.536-.155A1.1,1.1,0,0,0,309,7.426h.3V11.08H309a1.122,1.122,0,0,0-.293-.549.8.8,0,0,0-.536-.158Z" transform="translate(-206.33 -5.162)" fill="#fff"/>
    <path id="패스_99" data-name="패스 99" d="M348.338,16.682v4.3a.79.79,0,0,0,.154.525,1.158,1.158,0,0,0,.552.3v.3h-4.372v-.3a1.1,1.1,0,0,0,.552-.293.809.809,0,0,0,.155-.536v-4.3l-3.665-5.041a7.212,7.212,0,0,0-.988-1.164,1.978,1.978,0,0,0-.878-.425V9.743h5.572v.309q-.718.187-.718.673a2.433,2.433,0,0,0,.519.971l1.795,2.487,1.754-2.487a2.5,2.5,0,0,0,.519-.982q0-.463-.707-.662l-.011-.309h5.3v.309a1.98,1.98,0,0,0-.878.425A7.182,7.182,0,0,0,352,11.641Z" transform="translate(-236.254 -6.773)" fill="#fff"/>
  </g>
</svg>
